<svg xmlns="http://www.w3.org/2000/svg" viewBox="0 0 200 200" fill="none">
  <!-- Center of flower -->
  <circle cx="100" cy="100" r="20" fill="#fda4af"/>
  <circle cx="100" cy="100" r="12" fill="#e11d48"/>

  <!-- Petals -->
  <ellipse cx="100" cy="50" rx="25" ry="35" fill="#fda4af" transform="rotate(0 100 100)"/>
  <ellipse cx="100" cy="50" rx="25" ry="35" fill="#fb7185" transform="rotate(72 100 100)"/>
  <ellipse cx="100" cy="50" rx="25" ry="35" fill="#fda4af" transform="rotate(144 100 100)"/>
  <ellipse cx="100" cy="50" rx="25" ry="35" fill="#fb7185" transform="rotate(216 100 100)"/>
  <ellipse cx="100" cy="50" rx="25" ry="35" fill="#fda4af" transform="rotate(288 100 100)"/>

  <!-- Inner petals -->
  <ellipse cx="100" cy="65" rx="15" ry="22" fill="#f43f5e" transform="rotate(36 100 100)"/>
  <ellipse cx="100" cy="65" rx="15" ry="22" fill="#f43f5e" transform="rotate(108 100 100)"/>
  <ellipse cx="100" cy="65" rx="15" ry="22" fill="#f43f5e" transform="rotate(180 100 100)"/>
  <ellipse cx="100" cy="65" rx="15" ry="22" fill="#f43f5e" transform="rotate(252 100 100)"/>
  <ellipse cx="100" cy="65" rx="15" ry="22" fill="#f43f5e" transform="rotate(324 100 100)"/>

  <!-- Stem -->
  <path d="M100 130 Q95 160 100 200" stroke="#22c55e" stroke-width="6" fill="none" stroke-linecap="round"/>

  <!-- Leaves -->
  <path d="M100 155 Q80 145 70 160 Q85 160 100 155" fill="#22c55e"/>
  <path d="M100 175 Q120 165 130 180 Q115 180 100 175" fill="#22c55e"/>
</svg>
